<svg xmlns="http://www.w3.org/2000/svg" xmlns:xlink="http://www.w3.org/1999/xlink" style="enable-background:new 0 0 1024 512;" version="1.1" xml:space="preserve" fill="whitesmoke" width="1024" height="512"><rect id="backgroundrect" width="100%" height="100%" x="0" y="0" fill="none" stroke="none"/><g class="currentLayer" style=""><title>Layer 1</title><g id="svg_1" class=""><polygon id="XMLID_18_" points="193,452.1 193,414.7 110.3,414.7 110.3,452.1 110.3,471.8 193,471.8  "/><g id="svg_2"><polygon id="XMLID_17_" points="6,377.2 6,396 6,414.7 6,433.4 6,452.1 6,471.8 88.6,471.8 88.6,452.1 88.6,433.4 88.6,414.7     88.6,396 88.6,377.2 88.6,339.8 6,339.8   "/><polygon id="XMLID_16_" points="88.6,190 88.6,152.5 6,152.5 6,190 6,208.7 88.6,208.7   "/><polygon id="XMLID_15_" points="88.6,302.3 88.6,283.6 88.6,264.9 88.6,227.4 6,227.4 6,264.9 6,283.6 6,302.3 6,321.1     88.6,321.1   "/><polygon id="XMLID_14_" points="193,302.3 193,283.6 193,264.9 193,227.4 110.3,227.4 110.3,264.9 110.3,283.6 110.3,302.3     110.3,321.1 193,321.1   "/><polygon id="XMLID_13_" points="193,377.2 193,339.8 110.3,339.8 110.3,377.2 110.3,396 193,396   "/><polygon id="XMLID_12_" points="193,190 193,171.3 193,152.5 193,115.1 110.3,115.1 110.3,152.5 110.3,171.3 110.3,190     110.3,208.7 193,208.7   "/><polygon id="XMLID_11_" points="193,77.6 193,40.2 110.3,40.2 110.3,77.6 110.3,96.4 193,96.4   "/><rect height="18.700000762939453" id="XMLID_10_" width="82.5999984741211" x="214.6999969482422" y="339.79998779296875"/><polygon id="XMLID_9_" points="297.3,452.1 297.3,433.4 297.3,414.7 297.3,377.2 214.7,377.2 214.7,414.7 214.7,433.4     214.7,452.1 214.7,471.8 297.3,471.8   "/><rect height="18.700000762939453" id="XMLID_8_" width="82.5999984741211" x="319" y="227.39999389648438"/><polygon id="XMLID_7_" points="401.7,452.1 401.7,433.4 401.7,414.7 401.7,396 401.7,377.2 401.7,339.8 319,339.8 319,377.2     319,396 319,414.7 319,433.4 319,452.1 319,471.8 401.7,471.8   "/><polygon id="XMLID_6_" points="401.7,302.3 401.7,264.9 319,264.9 319,302.3 319,321.1 401.7,321.1   "/><polygon id="XMLID_5_" points="506,227.4 506,190 423.4,190 423.4,227.4 423.4,246.2 506,246.2   "/><rect height="18.700000762939453" id="XMLID_4_" width="82.5999984741211" x="423.3999938964844" y="77.5999984741211"/><polygon id="XMLID_3_" points="506,152.5 506,115.1 423.4,115.1 423.4,152.5 423.4,171.3 506,171.3   "/><polygon id="XMLID_2_" points="506,339.8 506,321.1 506,302.3 506,264.9 423.4,264.9 423.4,302.3 423.4,321.1 423.4,339.8     423.4,358.5 506,358.5   "/><polygon id="XMLID_1_" points="506,452.1 506,433.4 506,414.7 506,377.2 423.4,377.2 423.4,414.7 423.4,433.4 423.4,452.1     423.4,471.8 506,471.8   "/></g></g><g class="selected" id="svg_3"><polygon id="svg_4" points="717.137939453125,450.0310459136963 717.137939453125,412.6310520172119 634.4379272460938,412.6310520172119 634.4379272460938,450.0310459136963 634.4379272460938,469.7310276031494 717.137939453125,469.7310276031494 "/><g id="svg_5"><polygon id="XMLID_17_" points="530.1379089355469,375.1310520172119 530.1379089355469,393.93103981018066 530.1379089355469,412.6310520172119 530.1379089355469,431.33103370666504 530.1379089355469,450.0310459136963 530.1379089355469,469.7310276031494 612.7379150390625,469.7310276031494 612.7379150390625,450.0310459136963 612.7379150390625,431.33103370666504 612.7379150390625,412.6310520172119 612.7379150390625,393.93103981018066 612.7379150390625,375.1310520172119 612.7379150390625,337.7310276031494 530.1379089355469,337.7310276031494 "/><polygon id="XMLID_16_" points="612.7379150390625,187.93103981018066 612.7379150390625,150.43103981018066 530.1379089355469,150.43103981018066 530.1379089355469,187.93103981018066 530.1379089355469,206.63103675842285 612.7379150390625,206.63103675842285 "/><polygon id="XMLID_15_" points="612.7379150390625,300.2310276031494 612.7379150390625,281.5310459136963 612.7379150390625,262.83103370666504 612.7379150390625,225.33103370666504 530.1379089355469,225.33103370666504 530.1379089355469,262.83103370666504 530.1379089355469,281.5310459136963 530.1379089355469,300.2310276031494 530.1379089355469,319.0310459136963 612.7379150390625,319.0310459136963 "/><polygon id="XMLID_14_" points="717.137939453125,300.2310276031494 717.137939453125,281.5310459136963 717.137939453125,262.83103370666504 717.137939453125,225.33103370666504 634.4379272460938,225.33103370666504 634.4379272460938,262.83103370666504 634.4379272460938,281.5310459136963 634.4379272460938,300.2310276031494 634.4379272460938,319.0310459136963 717.137939453125,319.0310459136963 "/><polygon id="XMLID_13_" points="717.137939453125,375.1310520172119 717.137939453125,337.7310276031494 634.4379272460938,337.7310276031494 634.4379272460938,375.1310520172119 634.4379272460938,393.93103981018066 717.137939453125,393.93103981018066 "/><polygon id="XMLID_12_" points="717.137939453125,187.93103981018066 717.137939453125,169.23104286193848 717.137939453125,150.43103981018066 717.137939453125,113.03104591369629 634.4379272460938,113.03104591369629 634.4379272460938,150.43103981018066 634.4379272460938,169.23104286193848 634.4379272460938,187.93103981018066 634.4379272460938,206.63103675842285 717.137939453125,206.63103675842285 "/><polygon id="XMLID_11_" points="717.137939453125,75.53103065490723 717.137939453125,38.13103675842285 634.4379272460938,38.13103675842285 634.4379272460938,75.53103065490723 634.4379272460938,94.33103370666504 717.137939453125,94.33103370666504 "/><rect height="18.700000762939453" id="XMLID_10_" width="82.5999984741211" x="738.8379058837891" y="337.731023311615"/><polygon id="XMLID_9_" points="821.4379272460938,450.0310459136963 821.4379272460938,431.33103370666504 821.4379272460938,412.6310520172119 821.4379272460938,375.1310520172119 738.837890625,375.1310520172119 738.837890625,412.6310520172119 738.837890625,431.33103370666504 738.837890625,450.0310459136963 738.837890625,469.7310276031494 821.4379272460938,469.7310276031494 "/><rect height="18.700000762939453" id="XMLID_8_" width="82.5999984741211" x="843.1379089355469" y="225.33102941513062"/><polygon id="XMLID_7_" points="925.8379516601562,450.0310459136963 925.8379516601562,431.33103370666504 925.8379516601562,412.6310520172119 925.8379516601562,393.93103981018066 925.8379516601562,375.1310520172119 925.8379516601562,337.7310276031494 843.137939453125,337.7310276031494 843.137939453125,375.1310520172119 843.137939453125,393.93103981018066 843.137939453125,412.6310520172119 843.137939453125,431.33103370666504 843.137939453125,450.0310459136963 843.137939453125,469.7310276031494 925.8379516601562,469.7310276031494 "/><polygon id="XMLID_6_" points="925.8379516601562,300.2310276031494 925.8379516601562,262.83103370666504 843.137939453125,262.83103370666504 843.137939453125,300.2310276031494 843.137939453125,319.0310459136963 925.8379516601562,319.0310459136963 "/><polygon id="XMLID_5_" points="1030.137939453125,225.33103370666504 1030.137939453125,187.93103981018066 947.5379028320312,187.93103981018066 947.5379028320312,225.33103370666504 947.5379028320312,244.1310520172119 1030.137939453125,244.1310520172119 "/><rect height="18.700000762939453" id="XMLID_4_" width="82.5999984741211" x="947.5379028320312" y="75.53103399276733"/><polygon id="XMLID_3_" points="1030.137939453125,150.43103981018066 1030.137939453125,113.03104591369629 947.5379028320312,113.03104591369629 947.5379028320312,150.43103981018066 947.5379028320312,169.23104286193848 1030.137939453125,169.23104286193848 "/><polygon id="XMLID_2_" points="1030.137939453125,337.7310276031494 1030.137939453125,319.0310459136963 1030.137939453125,300.2310276031494 1030.137939453125,262.83103370666504 947.5379028320312,262.83103370666504 947.5379028320312,300.2310276031494 947.5379028320312,319.0310459136963 947.5379028320312,337.7310276031494 947.5379028320312,356.43103981018066 1030.137939453125,356.43103981018066 "/><polygon id="XMLID_1_" points="1030.137939453125,450.0310459136963 1030.137939453125,431.33103370666504 1030.137939453125,412.6310520172119 1030.137939453125,375.1310520172119 947.5379028320312,375.1310520172119 947.5379028320312,412.6310520172119 947.5379028320312,431.33103370666504 947.5379028320312,450.0310459136963 947.5379028320312,469.7310276031494 1030.137939453125,469.7310276031494 "/></g></g></g></svg>